<svg id="e3b2033c-7b53-433a-a69d-015c72ad2cde" data-name="Layer 1" xmlns="http://www.w3.org/2000/svg" viewBox="0 0 1730 1730"><defs><style>.\38 f58ef2d-e6f8-4914-b780-0e90424673c8{fill:none;stroke-width:100px;}.\38 f58ef2d-e6f8-4914-b780-0e90424673c8,.e7890503-9b18-4541-837c-5fe326dc98e1{stroke:#000;stroke-miterlimit:10;}.e7890503-9b18-4541-837c-5fe326dc98e1{stroke-width:0.25px;}</style></defs><title>fork-circle</title><circle class="8f58ef2d-e6f8-4914-b780-0e90424673c8" cx="865" cy="865" r="815"/><path class="e7890503-9b18-4541-837c-5fe326dc98e1" d="M1000,274.25c-400.82,0-725.75,324.93-725.75,725.75S599.18,1725.75,1000,1725.75s725.75-324.93,725.75-725.75S1400.82,274.25,1000,274.25ZM1290.55,873.9v68.57c0,95.3-79,174.33-174.33,174.33H883.78c-15.11,0-29,8.14-39.51,18.59,58.11,27.9,97.62,86,97.62,155.74a174.33,174.33,0,0,1-348.66,0c0-76.71,47.65-140.63,116.22-163.87V872.74c-68.57-24.41-116.22-87.16-116.22-163.87a174.33,174.33,0,0,1,348.66,0c0,76.71-47.65,140.63-116.22,163.87V1011c17.43-5.81,38.35-10.46,58.11-10.46h232.44a57.55,57.55,0,0,0,58.11-58.11V873.9c-68.57-24.4-116.22-87.16-116.22-163.87a174.33,174.33,0,0,1,348.66,0C1406.77,786.74,1359.12,850.66,1290.55,873.9Z" transform="translate(-135 -135)"/></svg>