<svg id="6940efa4-3597-40fd-9970-229d92c8bf03" data-name="Layer 1" xmlns="http://www.w3.org/2000/svg" viewBox="0 0 1730 1730"><defs><style>.\35 e301a32-943b-4171-b2ac-9dadf9f446d7{fill:none;stroke-width:100px;}.\30 81166b1-9814-4af8-a9cd-df60368f5f68,.\35 e301a32-943b-4171-b2ac-9dadf9f446d7{stroke:#000;stroke-miterlimit:10;}.\30 81166b1-9814-4af8-a9cd-df60368f5f68{stroke-width:0.25px;}</style></defs><title>globe-circle</title><circle class="5e301a32-943b-4171-b2ac-9dadf9f446d7" cx="865" cy="865" r="815"/><path class="081166b1-9814-4af8-a9cd-df60368f5f68" d="M1203.16,803.94c8.52,21.31,75.3,1.42,93.77,18.47,17,14.21,22.73,83.82,62.51,44,15.63-15.62,25.57-21.31,31.25-31.25v-4.26c-17-36.94-36.93-71-62.51-102.29C1274.2,744.27,1193.22,778.37,1203.16,803.94Z" transform="translate(-135 -135)"/><path class="081166b1-9814-4af8-a9cd-df60368f5f68" d="M1278.46,1187.53c-98,0-221.63-19.89-217.37-137.81,2.84-65.35,143.49-154.85,93.77-204.58-41.2-44,18.47-55.4,18.47-93.76,0-52.57-92.35-45.47-98-71s28.41-51.14,58.25-79.56c-42.62-14.2-86.67-27-133.55-27v1.42c-79.56,0-153.44,24.15-217.37,62.51,12.79,12.79,22.73,22.73,31.26,27,45.46,25.58,18.47,68.2-18.47,83.83C752.8,767,684.6,734.33,701.65,806.78c18.47,78.14-38.36,5.69-66.77,22.74-61.09,35.51,69.61,215.94,44,221.63-19.89,5.68-56.83-48.31-83.82-48.31-11.37,0-18.47,5.68-22.73,12.79,1.42,42.62,14.21,81,27,119.34,39.78,15.62,109.4,2.84,142.07,35.51,66.78,39.78,137.81,163.39,106.55,225.9,46.89,18.47,96.61,31.25,150.6,31.25,143.49,0,274.2-68.19,350.91-177.59C1353.76,1216,1338.13,1187.53,1278.46,1187.53Z" transform="translate(-135 -135)"/><path class="081166b1-9814-4af8-a9cd-df60368f5f68" d="M1000,274.25c-400.82,0-725.75,324.93-725.75,725.75S599.18,1725.75,1000,1725.75s725.75-324.93,725.75-725.75S1400.82,274.25,1000,274.25Zm0,1294c-314,0-568.28-254.3-568.28-568.28S686,431.72,1000,431.72,1568.28,686,1568.28,1000,1314,1568.28,1000,1568.28Z" transform="translate(-135 -135)"/></svg>