<svg id="3c73e82a-e4aa-4104-950e-0083b394ec53" data-name="Layer 1" xmlns="http://www.w3.org/2000/svg" viewBox="0 0 1730 1730"><defs><style>.\34 d0d87fb-13d6-406d-b14a-0192c985f3ce{fill:none;stroke-width:100px;}.\32 7c9d6e8-f905-4d99-ad9e-9f046858851b,.\34 d0d87fb-13d6-406d-b14a-0192c985f3ce{stroke:#000;stroke-miterlimit:10;}.\32 7c9d6e8-f905-4d99-ad9e-9f046858851b{stroke-width:0.25px;}</style></defs><title>person-circle</title><circle class="4d0d87fb-13d6-406d-b14a-0192c985f3ce" cx="865" cy="865" r="815"/><path class="27c9d6e8-f905-4d99-ad9e-9f046858851b" d="M1000,274.25c-400.82,0-725.75,324.93-725.75,725.75S599.18,1725.75,1000,1725.75s725.75-324.93,725.75-725.75S1400.82,274.25,1000,274.25Zm0,289.19c120,0,218.28,122.23,218.28,272.85s-98.23,272.85-218.28,272.85S781.72,986.9,781.72,836.29,880,563.44,1000,563.44Zm436.56,873.12H563.44V1327.42c0-117.87,92.77-212.82,208.46-218.28,58.93,66.58,139.7,109.14,228.1,109.14s169.17-42.56,228.1-109.14c116.78,5.46,208.46,100.41,208.46,218.28Z" transform="translate(-135 -135)"/></svg>