<svg xmlns="http://www.w3.org/2000/svg" viewBox="0 0 1512.76 1519"><defs><style>.c7d8419e-3bf3-4a7e-9162-6ee1917e0cff{fill:none;stroke:#000;stroke-miterlimit:10;stroke-width:100px;}</style></defs><title>updatefile-01</title><g id="45cd96d2-bd23-4561-9a74-c05a372cd8fb" data-name="Layer 1"><line class="c7d8419e-3bf3-4a7e-9162-6ee1917e0cff" x1="50.01" y1="251.5" x2="50.01" y2="1518.5"/><line class="c7d8419e-3bf3-4a7e-9162-6ee1917e0cff" x1="1229.01" y1="619" x2="1229.01" y2="1519"/><line class="c7d8419e-3bf3-4a7e-9162-6ee1917e0cff" x1="11.01" y1="1469" x2="1260.01" y2="1469"/></g><g id="e42e87e5-0edf-44cc-8781-2a87ce69b90a" data-name="Layer 2"><line class="c7d8419e-3bf3-4a7e-9162-6ee1917e0cff" y1="205" x2="821.01" y2="205"/><path class="c7d8419e-3bf3-4a7e-9162-6ee1917e0cff" d="M1777,320" transform="translate(-361.99 -115)"/><path class="c7d8419e-3bf3-4a7e-9162-6ee1917e0cff" d="M1405,320" transform="translate(-361.99 -115)"/><path class="c7d8419e-3bf3-4a7e-9162-6ee1917e0cff" d="M1591,134" transform="translate(-361.99 -115)"/><path class="c7d8419e-3bf3-4a7e-9162-6ee1917e0cff" d="M1591,506" transform="translate(-361.99 -115)"/><path class="c7d8419e-3bf3-4a7e-9162-6ee1917e0cff" d="M1779,342.5A177.5,177.5,0,0,1,1601.5,520" transform="translate(-361.99 -115)"/><path class="c7d8419e-3bf3-4a7e-9162-6ee1917e0cff" d="M1424,342.5A177.5,177.5,0,0,1,1601.5,165" transform="translate(-361.99 -115)"/><polygon class="c7d8419e-3bf3-4a7e-9162-6ee1917e0cff" points="1414.61 160.12 1403.07 180.12 1426.16 180.12 1414.61 160.12"/><polygon class="c7d8419e-3bf3-4a7e-9162-6ee1917e0cff" points="1064.61 271.12 1076.16 251.12 1053.07 251.12 1064.61 271.12"/></g></svg>